<svg width="20" height="20" viewBox="0 0 20 20" fill="none" xmlns="http://www.w3.org/2000/svg">
<g clip-path="url(#clip0_164_274)">
<circle cx="10" cy="10" r="10" fill="#FCFCFC"/>
<path d="M19.998 10.0593C19.998 4.50248 15.5211 -0.00195312 9.9993 -0.00195312C4.47499 -0.000703281 -0.00195312 4.50248 -0.00195312 10.0605C-0.00195312 15.0812 3.65509 19.2431 8.43449 19.998V12.9677H5.89731V10.0605H8.43699V7.84207C8.43699 5.32113 9.93056 3.92881 12.214 3.92881C13.3089 3.92881 14.4525 4.12503 14.4525 4.12503V6.59972H13.1914C11.9503 6.59972 11.5629 7.37587 11.5629 8.17203V10.0593H14.335L13.8926 12.9664H11.5616V19.9968C16.341 19.2419 19.998 15.0799 19.998 10.0593Z" fill="#374BA3"/>
</g>
<defs>
<clipPath id="clip0_164_274">
<rect width="20" height="20" fill="white"/>
</clipPath>
</defs>
</svg>
