<svg width="20" height="16" viewBox="0 0 20 16" fill="none" xmlns="http://www.w3.org/2000/svg">
<path d="M4.54711 14.9995V7.27431L2.15131 5.08251L0.00292969 3.86621V13.6362C0.00292969 14.3905 0.614085 14.9995 1.36622 14.9995H4.54711Z" fill="#4285F4"/>
<path d="M15.4531 14.9994H18.634C19.3884 14.9994 19.9973 14.3882 19.9973 13.6361V3.86621L17.5639 5.25933L15.4531 7.27423V14.9994Z" fill="#34A853"/>
<path d="M4.5467 7.27458L4.2207 4.25614L4.5467 1.36719L9.99969 5.45697L15.4527 1.36719L15.8173 4.10016L15.4527 7.27458L9.99969 11.3644L4.5467 7.27458Z" fill="#EA4335"/>
<path d="M15.4531 1.36709V7.27448L19.9973 3.86638V2.04869C19.9973 0.362842 18.0729 -0.598214 16.7256 0.412828L15.4531 1.36709Z" fill="#FBBC04"/>
<path d="M0.00292969 3.86642L2.09289 5.43394L4.54711 7.27452V1.36713L3.27466 0.412864C1.92504 -0.598257 0.00292969 0.362878 0.00292969 2.04865V3.86642Z" fill="#C5221F"/>
</svg>
